<?xml version="1.0" encoding="utf-8"?><svg xmlns="http://www.w3.org/2000/svg" width="735" height="369" xmlns:v="https://vecta.io/nano"><g clip-path="url(#A)"><path d="M3.246.326h569.278a2.996 2.996 0 0 1 3 3V368.76H.246V3.326a3 3 0 0 1 3-3Z" fill="#efefef"/><path d="M10.6 38.12h554.57v320.69H10.6V38.12Z" fill="#fff"/><path d="M3 0h569.278a2.996 2.996 0 0 1 3 3v21.44H0V3a3 3 0 0 1 3-3Z" fill="#5049e1"/><path d="M525.53 17.06a4.53 4.53 0 1 0 0-9.059 4.53 4.53 0 0 0 0 9.059Zm17.194 0a4.53 4.53 0 1 0 0-9.059 4.53 4.53 0 0 0 0 9.059Zm17.193 0a4.53 4.53 0 1 0 0-9.059 4.53 4.53 0 0 0 0 9.059Z" fill="#fff"/><path d="M345.539 163.494H229.401v66.512h116.138v-66.512Z" fill="#5049e1"/><path d="M66 78h139v110H66V78Zm304 172h139v11H370v-11Zm0 18h139v11H370v-11Zm0 19h139v11H370v-11Zm0 18h72v11h-72v-11ZM229.401 77.709h116.138v65.535H229.401V77.709ZM370 78h140v152H370V78ZM66 212h140v104H66V212Zm279.539 38H229.401v66h116.138v-66Z" fill="#efefef"/><path d="M640.057 162.076h-1.49v-40.808a23.617 23.617 0 0 0-23.618-23.618h-86.456a23.62 23.62 0 0 0-23.619 23.618v223.874a23.623 23.623 0 0 0 23.619 23.618h86.456a23.604 23.604 0 0 0 21.82-14.579 23.617 23.617 0 0 0 1.798-9.039V191.123h1.49v-29.047Z" fill="#232323"/><g fill="#fff"><path d="M556.467 106a2.5 2.5 0 1 0 0 5h23a2.5 2.5 0 1 0 0-5h-23zm32 5a2.5 2.5 0 1 0 0-5 2.5 2.5 0 0 0 0 5zm45.071 11.656v223.545a17.629 17.629 0 0 1-5.164 12.473 17.643 17.643 0 0 1-12.472 5.168h-86.873a17.643 17.643 0 0 1-12.472-5.168 17.646 17.646 0 0 1-5.164-12.473V122.656a17.641 17.641 0 0 1 17.636-17.635h10.538a8.383 8.383 0 0 0 3.82 10.559 8.357 8.357 0 0 0 3.94.983h49.53a8.386 8.386 0 0 0 6.954-3.704 8.378 8.378 0 0 0 .805-7.838h11.285a17.637 17.637 0 0 1 17.637 17.635z"/></g><g fill="#efefef"><path d="M531.5 156c-5.799 0-10.5-4.701-10.5-10.5s4.701-10.5 10.5-10.5 10.5 4.701 10.5 10.5-4.701 10.5-10.5 10.5Zm91.5-21h-75v3h75v-3Zm0 9h-75v3h75v-3Zm-75 9h75v3h-75v-3Zm-16.5 170c-5.799 0-10.5-4.701-10.5-10.5s4.701-10.5 10.5-10.5 10.5 4.701 10.5 10.5-4.701 10.5-10.5 10.5Zm16.5-21h75v3h-75v-3Zm75 9h-75v3h75v-3Zm-75 9h75v3h-75v-3Zm-27 18h102v3H521v-3Zm0 9h53v3h-53v-3Z"/><g fill-rule="evenodd"><path d="M593.122 209.073c-1.295.255-2.088 1.27-1.843 2.36.117.519.441 1.13.781 1.468.214.214.486.35 1.096.548l1.019.37c.371.192.979.882 1.237 1.404.458.929.544 1.412.542 3.059-.001 1.339-.025 1.587-.235 2.479-.306 1.299-.767 2.542-1.47 3.967l-.571 1.157.545-.573c2.448-2.578 4.08-7.317 3.762-10.929-.134-1.531-.57-2.754-1.348-3.786-.649-.862-1.46-1.372-2.434-1.531-.544-.089-.594-.089-1.081.007zm23.861.118c-.144.062-.302.187-.352.279s-.089.604-.089 1.148c0 2.057-.805 3.838-2.559 5.661-1.963 2.04-4.822 3.654-8.831 4.987-.729.242-1.251.442-1.16.443.352.006 2.28-.346 3.432-.626 2.439-.593 4.708-1.468 5.962-2.299.737-.489 1.993-1.802 2.607-2.725.535-.805 1.27-2.279 1.539-3.088.461-1.383.552-2.697.232-3.321-.254-.494-.44-.603-.781-.459zm3.832 1.506c-.101.448-.376.695-1.2 1.079-.956.446-1.279.683-1.545 1.135-.226.385-.409 1.149-.254 1.058.051-.03.316-.247.59-.482.664-.573 1.546-1.21 1.599-1.157.074.074-.244.37-1.123 1.047-.467.36-.849.694-.849.741 0 .125.459.011.953-.237.568-.286 1.534-1.271 1.8-1.838.294-.625.35-.983.207-1.327l-.118-.284-.06.265zm-14.512 1.299a.771.771 0 0 0-.018.31c.038.273.525.326.607.067.105-.33-.467-.696-.589-.377zm5.055.831c-.098.149-.154.523-.204 1.343-.038.626-.114 1.268-.169 1.427-.38 1.088-2.424 3.034-4.455 4.239-.368.218-1.211.642-1.873.943s-1.192.558-1.177.573.571-.14 1.237-.343c2.668-.814 4.595-1.85 5.974-3.21 1.816-1.79 2.509-4.049 1.539-5.016-.24-.239-.701-.216-.872.044zm-12.285.199c-.258.258-.219.63.147 1.376.802 1.639.781 3.329-.068 5.346-.603 1.435-1.77 3.065-3.236 4.522l-.953.946.87-.653c1.04-.781 2.49-2.169 3.107-2.973 1.286-1.675 1.958-3.329 2.077-5.114.131-1.951-.475-3.415-1.481-3.578-.224-.036-.327-.008-.463.128zm6.913.883c-.163.163-.164.281-.001.512.14.2.442.243.6.085.147-.146.121-.434-.052-.59-.19-.172-.379-.175-.547-.007zm13.632 1.061c-.174.589-.511.814-1.829 1.225-1.261.393-1.823.759-2.254 1.468-.158.259-.414 1.006-.362 1.058.021.021.496-.26 1.056-.625 1.102-.72 2.122-1.301 2.18-1.243.09.09-.594.608-1.618 1.224-1.181.711-1.393.868-1.299.962.031.031.29.014.574-.039 1.405-.26 3.049-1.583 3.683-2.963.163-.357.2-.545.169-.866-.054-.567-.169-.643-.3-.201zm-12.699.169c-.069.152-.068.326.002.675a5.07 5.07 0 0 1 .095.797c0 .916-1.564 2.746-3.433 4.018-.407.278-.704.504-.66.504.124 0 1.85-.974 2.312-1.305 1.88-1.345 2.935-3.01 2.682-4.23-.118-.568-.804-.883-.998-.459zm-1.556.371c-.203.203-.215.398-.041.647.236.336.866.171.866-.226 0-.196-.242-.471-.473-.538-.124-.036-.235.001-.352.117zm-1.035 1.675c-.176.252-.162.369.075.605.246.246.406.256.625.038.211-.211.21-.417-.003-.646s-.532-.231-.697.003zm-1.086 1.506c-.114.174-.117.235-.022.432.154.321.507.435.728.236.215-.193.216-.493.003-.705-.229-.228-.546-.212-.709.037zm-10.143.485a3.9 3.9 0 0 0 .125.387c.341.965.046 1.64-1.394 3.198-1.249 1.351-1.66 2.077-1.802 3.187a5.23 5.23 0 0 0 .249 2.076c.091.232.107.208.654-.909.886-1.814 1.574-3.093 1.926-3.584.297-.415.325-.434.325-.229 0 .368-.352 1.191-1.035 2.418-.787 1.413-1.201 2.26-1.201 2.458 0 .141.014.142.264.013.146-.075.467-.327.714-.56 1.742-1.64 2.87-5.371 2.2-7.274-.17-.483-.465-.894-.766-1.067-.142-.082-.259-.133-.259-.114zm8.825.797c-.187.207-.114.532.16.712.506.33.925-.314.489-.749-.173-.173-.474-.156-.649.037zm10.578-.037c-.439.121-1.458.708-1.303.75.046.012.586.063 1.201.113 1.387.113 2.63.327 2.474.426-.174.11-.664.088-2.046-.092-1.409-.183-1.696-.147-1.264.16.49.348 1.15.524 2.127.565 1.171.049 1.952-.081 2.689-.448.585-.292.852-.564.955-.972l.058-.231-.353.233c-.481.318-.984.304-1.865-.049-1.343-.54-1.976-.648-2.673-.455zm-11.984 1.216c-.177.252-.163.369.074.605.247.246.407.256.625.037.212-.21.211-.417-.003-.645s-.531-.232-.696.003zm4.707.845c-.063.164.03.293.213.293.163 0 .251-.142.192-.31-.05-.142-.349-.13-.405.017zm-6.138.135c-.25.093-.326.435-.155.696.196.298.675.293.813-.008.183-.401-.24-.843-.658-.688zm3.553.172c.018.129.082.193.193.193.246 0 .222-.323-.028-.358-.16-.023-.188.005-.165.165zm5.151.028c-.029.075.002.191.069.257.165.165.414.058.382-.165s-.375-.29-.451-.092zm-4.461.42c-2.67.263-4.691.833-6.503 1.834-2.015 1.114-3.485 2.273-6.503 5.129-1.172 1.109-2.461 2.195-3.399 2.864-1.236.88-2.439 1.251-3.835 1.181-.589-.03-.852-.092-1.463-.344-1.041-.429-1.027-.427-.704-.142.364.322 1.145.698 1.739.839.616.145 1.983.124 2.692-.041 1.699-.396 2.917-1.133 4.929-2.979 1.074-.986 1.015-.969 2.021-.604 1.144.414 1.555 1.359 1.039 2.384-.239.474-.751.883-1.189.948-.725.109-1.54-.514-1.54-1.176 0-.64.525-1.087 1.092-.931.446.123.606.359.575.847-.011.171-.368.555-.515.555-.055 0 0-.092.12-.203.276-.255.282-.568.016-.834s-.501-.256-.797.039c-.324.323-.325.679-.004 1 .308.308.603.377.986.232a1.24 1.24 0 0 0 .68-.989c.004-.625-.542-1.184-1.244-1.274-.487-.063-1.024.206-1.352.677-.616.885-.342 2.021.633 2.622.314.194.515.25 1.01.282.551.035.669.015 1.081-.187.55-.268 1.024-.823 1.275-1.492.337-.899.165-1.606-.576-2.361-.262-.268-.458-.487-.434-.487.109 0 .672.383.953.648.409.386.526.743.396 1.207-.084.299-.079.395.033.611.427.823 1.457.38 1.457-.626 0-.212-.09-.47-.27-.77-.502-.842-1.759-1.467-3.109-1.547-.378-.022-.676-.065-.663-.095s.416-.421.894-.868c2.591-2.42 4.724-3.811 6.917-4.51.692-.221.919-.258 1.384-.226 1.385.095 2.386 1.154 2.384 2.522a2.153 2.153 0 0 1-1.5 2.03c-.525.169-.741.171-1.129.009a1.32 1.32 0 0 1-.775-.716c-.423-.827.059-1.553 1.031-1.553.279 0 .437.052.609.199.218.188.232.238.224.823-.009.681.039.713.439.286.625-.667.56-1.559-.159-2.172-.79-.675-2.07-.524-2.893.34-.51.537-.609.803-.608 1.639 0 .646.03.8.221 1.162.229.436.718.933 1.119 1.138.394.202 1.151.319 1.662.257 1.123-.136 1.866-.635 2.359-1.582.804-1.546.584-3.009-.619-4.12l-.514-.475.288.05c.158.027.511.075.784.106 1.047.119 2.582.746 3.479 1.421.583.439 1.791 1.972 2.188 2.776.572 1.16.773 1.99.784 3.234.009.912-.019 1.168-.184 1.694-.607 1.94-1.762 3.073-3.39 3.325-1.369.211-3.018-.478-3.738-1.562-.272-.409-.333-.927-.119-.997.06-.02.082.029.056.126-.048.185.168.43.379.43s.421-.264.421-.523c0-.323-.269-.551-.65-.551-.482 0-.627.206-.572.815.101 1.101 1.217 2.176 2.639 2.541.67.172 1.765.11 2.427-.138 1.312-.489 2.422-1.924 2.876-3.716.145-.57.168-.849.132-1.604-.059-1.273-.403-2.392-1.099-3.57-.225-.382-.241-.432-.074-.237.343.403 1.004 1.847 1.19 2.598.426 1.727.06 3.625-.986 5.111-.661.938-1.49 1.553-2.433 1.803-.543.145-1.63.146-2.166.003-1.347-.36-2.414-1.388-2.743-2.647l-.11-.422.032.64c.055 1.073.493 1.806 1.469 2.455.716.478 1.424.678 2.387.676 2.192-.003 3.824-1.131 4.851-3.351 1.603-3.466-.554-8.23-4.604-10.166-.724-.347-.625-.363.775-.124 2.593.441 4.814 1.574 6.793 3.465 3.875 3.702 4.898 8.877 2.576 13.03a15.63 15.63 0 0 1-1.457 2.016c-.664.725-1.772 1.393-2.89 1.743-.523.164-.79.193-1.736.191-1.319-.003-1.821-.117-2.974-.671-1.708-.823-3.019-2.663-3.082-4.326-.009-.259-.019-.246-.087.124-.219 1.194.26 2.776 1.134 3.746 2.564 2.844 7.618 2.731 10.547-.237.239-.244.498-.547.573-.674s.161-.232.191-.232.223.349.429.775c.55 1.134 1.065 1.866 1.797 2.553.692.65 1.577 1.175 2.126 1.263.662.105 1.215-.335 1.03-.82-.092-.242-.457-.536-.743-.599-1.508-.329-2.722-1.167-3.906-2.695l-.564-.728.338-.508c.996-1.496 1.506-3.268 1.504-5.232-.001-1.362-.158-2.346-.574-3.595-1.541-4.622-5.469-8.249-10.1-9.324-1.521-.353-3.798-.568-4.887-.461zm7 .322c-.204.246.127.576.373.372.157-.129.155-.203-.007-.365s-.236-.163-.366-.007zm-28.466.491c-.704.16-1.364.501-1.824.94l-.388.371-.246-.305c-.834-1.037-2.05-.597-2.883 1.045-.374.737-.492 1.311-.493 2.402-.001 2.016.557 3.722 1.601 4.893.493.553.419.533-.371-.105-2.167-1.747-3.297-4.059-2.875-5.885.108-.469.052-.688-.212-.828-.188-.101-.229-.094-.407.073-.656.615-.436 2.661.486 4.512.553 1.109 1.112 1.803 1.934 2.403.734.534 2.428 1.376 3.668 1.823l.879.317.083.629c.198 1.497 1.084 2.501 2.389 2.707.271.043.509.063.529.044s-.1-.173-.265-.343c-.545-.56-.566-.946-.074-1.36.138-.115.793-.491 1.455-.835 1.869-.971 2.839-1.629 3.229-2.19.119-.172.216-.338.216-.371s-.196.04-.435.161c-1.34.678-3.361 1.041-4.795.862-1.4-.175-2.297-.646-3.344-1.756-1.293-1.371-1.791-3.081-1.372-4.714.324-1.262.943-2.053 2.027-2.588 1.388-.683 2.861-.556 3.848.334.301.272.675.867.797 1.269.054.177.045.185-.121.096-.317-.169-1.046-.139-1.305.053-.413.307-.56.664-.56 1.357 0 .539.03.672.22.958.312.471.715.648 1.478.648.512 0 .704-.041 1.09-.23.616-.302 1.112-.792 1.383-1.369.196-.417.219-.565.219-1.378 0-.862-.014-.94-.271-1.459-.479-.971-1.54-1.766-2.794-2.095-.709-.186-1.881-.226-2.496-.086zm30.742.796c-.079.248.154.483.355.357.079-.05.143-.18.143-.288 0-.277-.414-.335-.498-.069zm-3.478.84c1.525 1.286 2.633 2.582 3.185 3.726.904 1.872 1.022 3.757.416 6.609-.317 1.493-.374 2.125-.254 2.835.192 1.136.958 2.204 1.753 2.441.878.262 1.779-.685 2.227-2.342.759-2.805.141-5.774-1.806-8.669-1.267-1.885-3.194-3.635-5.004-4.547-.857-.431-.98-.444-.517-.053zm5.643.603c-.074.074-.134.166-.134.205 0 .128.266.339.394.314.206-.041.324-.29.218-.459-.125-.197-.316-.221-.478-.06zm-43.656.17c-.234.61.32 1.754 1.099 2.269.632.418.637.272.015-.382-.329-.345-.572-.652-.54-.682s.337.243.678.607l.621.661-.039-.385c-.052-.507-.282-.812-.913-1.209-.608-.383-.735-.519-.752-.801-.013-.236-.094-.273-.169-.078zm38.179.944c.082.091.131.165.108.165s-.109-.074-.191-.165-.131-.165-.108-.165.108.074.191.165zm7.255.777c-.23.276.18.685.457.456.068-.057.113-.2.099-.317-.018-.16-.078-.22-.239-.239-.118-.013-.26.031-.317.1zm-45.477 1.032c-.251.46.09 1.323.838 2.121.471.502 1.17.945 1.491.945.237 0 .173-.098-.325-.495-.698-.557-1.183-1.003-1.183-1.091 0-.105.407.191 1.202.874.703.605.793.604.628-.004-.147-.54-.526-.903-1.36-1.3-.841-.4-1.042-.574-1.126-.976l-.057-.272-.108.198zm46.931 1.175c-.141.2-.1.373.117.489.207.11.402.018.461-.219.101-.398-.343-.604-.578-.27zm.989 2.352c-.251.249-.107.614.242.614s.493-.365.243-.614c-.072-.072-.181-.13-.243-.13s-.171.058-.242.13zm-47.099.356c0 .278.458.713 1.012.961.689.309 1.928.39 2.518.165.543-.206.339-.286-.755-.294-.501-.004-.985-.039-1.076-.079-.103-.044.302-.073 1.069-.076l1.234-.006-.158-.174c-.212-.235-.693-.472-1.084-.534-.203-.032-.585.012-1.049.122-.946.224-1.146.218-1.456-.041-.242-.204-.255-.206-.255-.044zm4.741 1.791c-.24.064-.841.327-1.335.584-1.064.552-1.52.635-2.033.368-.179-.093-.34-.154-.358-.137-.084.084.265.566.541.748.511.337 1.008.47 1.927.517 1.454.074 2.909-.328 3.517-.974l.249-.263-.397.057c-.218.031-.815.165-1.325.298-1.002.259-2.065.406-1.923.264s1.115-.42 2.236-.639c1.661-.324 1.526-.271 1.194-.474-.383-.236-1.183-.479-1.553-.472-.167.003-.5.058-.74.123zm42.793.388c-.208.167-.236.372-.078.566.2.247.564.164.642-.147.043-.17.012-.254-.132-.371-.222-.179-.263-.184-.432-.048zm-.265 2.666c-.292.291-.006.77.399.669.237-.06.369-.408.236-.621-.114-.182-.473-.209-.635-.048zm-.652 2.457c-.251.193-.218.612.058.737.443.201.833-.378.473-.703-.18-.163-.348-.174-.531-.034zm-1.061 2.013c1.623 1.909 4.166 2.923 6.692 2.667 2.444-.247 3.849-.99 3.849-2.037 0-.449-.307-.702-.903-.743-.45-.031-.544-.002-1.487.463-2.222 1.096-3.807 1.317-5.645.788a7.749 7.749 0 0 1-2.212-1.044c-.455-.304-.48-.312-.294-.094zm-.773 1.116c-.064.497-.411 1.291-.727 1.667-.107.127-.455.406-.774.621-.499.336-.583.428-.606.663-.034.356.104.511.456.511.412 0 1.098-.669 1.484-1.446.322-.651.445-1.523.303-2.149l-.075-.331-.061.464zm.392.239c.183.713.245 1.676.147 2.311-.195 1.275-.513 1.919-1.523 3.089-.579.672-.726.977-.58 1.203.118.181.53.148.885-.071.372-.229.999-1.17 1.307-1.961.493-1.266.502-2.679.028-4.068-.205-.599-.37-.914-.264-.503zm-12.728 1.063c-.7.46-.791 1.401-.198 2.047.287.312.815.454 1.099.296.113-.063.056-.074-.225-.042-.335.038-.408.013-.678-.222-.776-.68-.496-1.855.468-1.963.313-.035.496.016 1.2.338 1.867.854 3.906 1.192 5.345.885.645-.137.544-.207-.123-.085-1.148.21-2.689-.089-4.655-.904-1.34-.556-1.808-.63-2.233-.35z"/><path d="M551.858 209.073c1.295.255 2.088 1.27 1.843 2.36-.117.519-.441 1.13-.781 1.468-.214.214-.486.35-1.096.548l-1.019.37c-.371.192-.979.882-1.237 1.404-.458.929-.544 1.412-.542 3.059.001 1.339.025 1.587.235 2.479.306 1.299.767 2.542 1.47 3.967l.571 1.157-.545-.573c-2.448-2.578-4.08-7.317-3.762-10.929.134-1.531.57-2.754 1.348-3.786.649-.862 1.46-1.372 2.434-1.531.544-.089.594-.089 1.081.007zm-23.861.118c.144.062.302.187.352.279s.089.604.089 1.148c0 2.057.805 3.838 2.559 5.661 1.963 2.04 4.822 3.654 8.831 4.987.729.242 1.251.442 1.16.443-.352.006-2.28-.346-3.432-.626-2.439-.593-4.708-1.468-5.962-2.299-.737-.489-1.993-1.802-2.607-2.725-.535-.805-1.27-2.279-1.539-3.088-.461-1.383-.552-2.697-.232-3.321.254-.494.44-.603.781-.459zm-3.832 1.506c.101.448.376.695 1.2 1.079.956.446 1.279.683 1.545 1.135.226.385.409 1.149.254 1.058a9.755 9.755 0 0 1-.59-.482c-.664-.573-1.546-1.21-1.599-1.157-.074.074.244.37 1.123 1.047.467.36.849.694.849.741 0 .125-.459.011-.953-.237-.568-.286-1.534-1.271-1.8-1.838-.294-.625-.35-.983-.207-1.327l.118-.284.06.265zm14.512 1.299a.771.771 0 0 1 .018.31c-.038.273-.525.326-.607.067-.105-.33.467-.696.589-.377zm-5.055.831c.098.149.154.523.204 1.343.038.626.114 1.268.169 1.427.38 1.088 2.424 3.034 4.455 4.239.368.218 1.211.642 1.873.943s1.192.558 1.177.573-.571-.14-1.237-.343c-2.668-.814-4.595-1.85-5.974-3.21-1.816-1.79-2.509-4.049-1.539-5.016.24-.239.701-.216.872.044zm12.285.199c.258.258.219.63-.147 1.376-.802 1.639-.781 3.329.068 5.346.603 1.435 1.77 3.065 3.236 4.522l.953.946-.87-.653c-1.04-.781-2.49-2.169-3.107-2.973-1.286-1.675-1.958-3.329-2.077-5.114-.131-1.951.475-3.415 1.481-3.578.224-.036.327-.008.463.128zm-6.913.883c.163.163.164.281.001.512-.14.2-.442.243-.6.085-.147-.146-.121-.434.052-.59.19-.172.379-.175.547-.007zm-13.632 1.061c.174.589.511.814 1.829 1.225 1.261.393 1.823.759 2.254 1.468.158.259.414 1.006.362 1.058-.021.021-.496-.26-1.056-.625-1.102-.72-2.122-1.301-2.18-1.243-.09.09.594.608 1.618 1.224 1.181.711 1.393.868 1.299.962-.031.031-.29.014-.574-.039-1.405-.26-3.049-1.583-3.683-2.963-.163-.357-.2-.545-.169-.866.054-.567.169-.643.3-.201zm12.699.169c.069.152.068.326-.002.675a5.085 5.085 0 0 0-.095.797c0 .916 1.564 2.746 3.433 4.018.407.278.704.504.66.504-.124 0-1.85-.974-2.312-1.305-1.88-1.345-2.935-3.01-2.682-4.23.118-.568.804-.883.998-.459zm1.556.371c.203.203.215.398.041.647-.236.336-.866.171-.866-.226 0-.196.242-.471.473-.538.124-.036.235.001.352.117zm1.035 1.675c.176.252.162.369-.075.605-.246.246-.406.256-.625.038-.211-.211-.21-.417.003-.646s.532-.231.697.003zm1.086 1.506c.114.174.117.235.022.432-.154.321-.507.435-.728.236-.215-.193-.216-.493-.003-.705.229-.228.546-.212.709.037zm10.143.485c-.035.131-.077.26-.125.387-.341.965-.047 1.64 1.394 3.198 1.249 1.351 1.66 2.077 1.802 3.187a5.23 5.23 0 0 1-.249 2.076c-.091.232-.107.208-.654-.909-.886-1.814-1.574-3.093-1.926-3.584-.297-.415-.325-.434-.325-.229 0 .368.352 1.191 1.035 2.418.787 1.413 1.201 2.26 1.201 2.458 0 .141-.014.142-.264.013-.146-.075-.467-.327-.715-.56-1.741-1.64-2.869-5.371-2.199-7.274.17-.483.465-.894.766-1.067.142-.082.259-.133.259-.114zm-8.825.797c.187.207.114.532-.16.712-.506.33-.925-.314-.489-.749.173-.173.473-.156.649.037zm-10.578-.037c.439.121 1.458.708 1.303.75-.046.012-.586.063-1.201.113-1.387.113-2.63.327-2.474.426.174.11.664.088 2.046-.092 1.409-.183 1.696-.147 1.264.16-.49.348-1.15.524-2.127.565-1.171.049-1.952-.081-2.689-.448-.585-.292-.852-.564-.955-.972l-.058-.231.353.233c.481.318.984.304 1.865-.049 1.343-.54 1.976-.648 2.673-.455zm11.984 1.216c.177.252.163.369-.074.605-.247.246-.407.256-.625.037-.212-.21-.211-.417.003-.645s.531-.232.696.003zm-4.707.845c.063.164-.03.293-.213.293-.163 0-.251-.142-.192-.31.05-.142.349-.13.405.017zm6.138.135c.25.093.326.435.155.696-.196.298-.675.293-.813-.008-.183-.401.24-.843.658-.688zm-3.553.172c-.018.129-.082.193-.193.193-.246 0-.222-.323.028-.358.16-.023.188.005.165.165zm-5.151.028c.029.075-.002.191-.069.257-.165.165-.414.058-.382-.165s.375-.29.451-.092zm4.461.42c2.67.263 4.691.833 6.503 1.834 2.015 1.114 3.485 2.273 6.503 5.129 1.172 1.109 2.461 2.195 3.399 2.864 1.235.88 2.439 1.251 3.835 1.181.589-.03.852-.092 1.463-.344 1.041-.429 1.027-.427.704-.142-.364.322-1.145.698-1.739.839-.616.145-1.983.124-2.692-.041-1.699-.396-2.918-1.133-4.929-2.979-1.074-.986-1.016-.969-2.021-.604-1.144.414-1.555 1.359-1.039 2.384.239.474.751.883 1.189.948.725.109 1.54-.514 1.54-1.176 0-.64-.525-1.087-1.092-.931-.446.123-.606.359-.575.847.011.171.368.555.515.555.055 0 0-.092-.12-.203-.276-.255-.282-.568-.016-.834s.501-.256.797.039c.324.323.325.679.004 1-.309.308-.603.377-.986.232a1.24 1.24 0 0 1-.68-.989c-.004-.625.542-1.184 1.244-1.274.487-.063 1.024.206 1.352.677.616.885.342 2.021-.633 2.622-.314.194-.515.25-1.01.282-.551.035-.669.015-1.081-.187-.55-.268-1.024-.823-1.275-1.492-.337-.899-.165-1.606.576-2.361.262-.268.458-.487.434-.487-.109 0-.672.383-.953.648-.409.386-.526.743-.396 1.207.084.299.079.395-.033.611-.427.823-1.457.38-1.457-.626 0-.212.09-.47.27-.77.502-.842 1.759-1.467 3.109-1.547.378-.022.676-.065.663-.095s-.416-.421-.894-.868c-2.591-2.42-4.724-3.811-6.917-4.51-.692-.221-.919-.258-1.384-.226-1.385.095-2.386 1.154-2.384 2.522.002.92.61 1.743 1.5 2.03.525.169.741.171 1.129.009a1.32 1.32 0 0 0 .775-.716c.423-.827-.059-1.553-1.031-1.553-.279 0-.437.052-.609.199-.218.188-.232.238-.224.823.009.681-.039.713-.439.286-.625-.667-.56-1.559.159-2.172.79-.675 2.07-.524 2.893.34.51.537.609.803.608 1.639 0 .646-.03.8-.221 1.162-.229.436-.718.933-1.119 1.138-.394.202-1.152.319-1.662.257-1.123-.136-1.866-.635-2.359-1.582-.804-1.546-.584-3.009.619-4.12l.514-.475-.288.05c-.158.027-.511.075-.784.106-1.047.119-2.582.746-3.479 1.421-.583.439-1.791 1.972-2.188 2.776-.572 1.16-.773 1.99-.785 3.234-.008.912.02 1.168.185 1.694.607 1.94 1.762 3.073 3.39 3.325 1.369.211 3.018-.478 3.738-1.562.272-.409.333-.927.119-.997-.06-.02-.082.029-.056.126.048.185-.168.43-.379.43s-.421-.264-.421-.523c0-.323.269-.551.65-.551.482 0 .627.206.572.815-.101 1.101-1.217 2.176-2.639 2.541-.67.172-1.765.11-2.427-.138-1.312-.489-2.422-1.924-2.876-3.716-.145-.57-.168-.849-.133-1.604.06-1.273.404-2.392 1.1-3.57.225-.382.241-.432.074-.237-.343.403-1.004 1.847-1.19 2.598-.426 1.727-.06 3.625.986 5.111.661.938 1.49 1.553 2.433 1.803.543.145 1.63.146 2.166.003 1.347-.36 2.414-1.388 2.743-2.647l.11-.422-.032.64c-.055 1.073-.493 1.806-1.469 2.455-.716.478-1.424.678-2.387.676-2.192-.003-3.824-1.131-4.851-3.351-1.603-3.466.554-8.23 4.604-10.166.724-.347.625-.363-.775-.124-2.593.441-4.814 1.574-6.793 3.465-3.875 3.702-4.898 8.877-2.576 13.03a15.63 15.63 0 0 0 1.457 2.016c.664.725 1.772 1.393 2.89 1.743.523.164.79.193 1.736.191 1.319-.003 1.821-.117 2.974-.671 1.708-.823 3.019-2.663 3.082-4.326.009-.259.019-.246.087.124.219 1.194-.26 2.776-1.134 3.746-2.564 2.844-7.618 2.731-10.547-.237-.24-.244-.498-.547-.573-.674s-.161-.232-.191-.232-.223.349-.429.775c-.55 1.134-1.065 1.866-1.797 2.553-.692.65-1.577 1.175-2.126 1.263-.662.105-1.215-.335-1.03-.82.092-.242.457-.536.742-.599 1.509-.329 2.723-1.167 3.907-2.695l.564-.728-.338-.508c-.996-1.496-1.506-3.268-1.504-5.232.001-1.362.158-2.346.574-3.595 1.541-4.622 5.469-8.249 10.1-9.324 1.521-.353 3.798-.568 4.887-.461zm-7 .322c.204.246-.127.576-.373.372-.157-.129-.155-.203.007-.365s.236-.163.366-.007zm28.466.491c.704.16 1.364.501 1.824.94l.388.371.246-.305c.834-1.037 2.05-.597 2.883 1.045.374.737.492 1.311.493 2.402.001 2.016-.557 3.722-1.601 4.893-.494.553-.419.533.371-.105 2.167-1.747 3.297-4.059 2.875-5.885-.108-.469-.052-.688.212-.828.188-.101.229-.094.407.073.656.615.436 2.661-.486 4.512-.553 1.109-1.112 1.803-1.934 2.403-.734.534-2.428 1.376-3.668 1.823l-.879.317-.083.629c-.198 1.497-1.084 2.501-2.389 2.707-.271.043-.509.063-.529.044s.099-.173.265-.343c.545-.56.566-.946.074-1.36-.138-.115-.793-.491-1.455-.835-1.869-.971-2.839-1.629-3.229-2.19-.119-.172-.216-.338-.216-.371s.196.04.435.161c1.34.678 3.361 1.041 4.795.862 1.4-.175 2.297-.646 3.344-1.756 1.293-1.371 1.79-3.081 1.372-4.714-.324-1.262-.943-2.053-2.027-2.588-1.388-.683-2.861-.556-3.848.334-.301.272-.676.867-.797 1.269-.054.177-.045.185.121.096.317-.169 1.046-.139 1.305.053.413.307.56.664.56 1.357 0 .539-.03.672-.22.958-.313.471-.715.648-1.478.648-.512 0-.704-.041-1.09-.23-.616-.302-1.112-.792-1.383-1.369-.196-.417-.219-.565-.219-1.378 0-.862.014-.94.271-1.459.479-.971 1.54-1.766 2.794-2.095.709-.186 1.881-.226 2.496-.086zm-30.742.796c.079.248-.154.483-.355.357-.079-.05-.143-.18-.143-.288 0-.277.414-.335.498-.069zm3.478.84c-1.525 1.286-2.633 2.582-3.185 3.726-.904 1.872-1.022 3.757-.416 6.609.317 1.493.374 2.125.254 2.835-.192 1.136-.958 2.204-1.753 2.441-.878.262-1.779-.685-2.227-2.342-.759-2.805-.141-5.774 1.806-8.669 1.267-1.885 3.194-3.635 5.004-4.547.856-.431.98-.444.517-.053zm-5.643.603c.074.074.134.166.134.205 0 .128-.266.339-.394.314-.206-.041-.324-.29-.218-.459.125-.197.316-.221.478-.06zm43.656.17c.234.61-.32 1.754-1.099 2.269-.632.418-.637.272-.015-.382.329-.345.572-.652.54-.682s-.337.243-.678.607l-.621.661.039-.385c.052-.507.282-.812.913-1.209.608-.383.735-.519.752-.801.013-.236.094-.273.169-.078zm-38.179.944c-.082.091-.131.165-.108.165s.109-.074.191-.165.131-.165.108-.165-.108.074-.191.165zm-7.255.777c.23.276-.18.685-.457.456-.068-.057-.113-.2-.099-.317.018-.16.078-.22.239-.239.118-.013.26.031.317.1zm45.477 1.032c.251.46-.09 1.323-.838 2.121-.471.502-1.17.945-1.491.945-.237 0-.173-.098.325-.495.698-.557 1.183-1.003 1.183-1.091 0-.105-.407.191-1.202.874-.703.605-.793.604-.628-.004.147-.54.526-.903 1.36-1.3.841-.4 1.042-.574 1.126-.976l.057-.272.108.198zm-46.931 1.175c.141.2.1.373-.117.489-.207.11-.402.018-.461-.219-.101-.398.343-.604.578-.27zm-.989 2.352c.251.249.107.614-.242.614s-.493-.365-.243-.614c.072-.072.181-.13.243-.13s.171.058.242.13zm47.099.356c0 .278-.458.713-1.012.961-.689.309-1.928.39-2.518.165-.543-.206-.339-.286.755-.294.501-.004.985-.039 1.076-.079.103-.044-.302-.073-1.069-.076l-1.234-.006.158-.174c.212-.235.693-.472 1.084-.534.203-.032.585.012 1.049.122.946.224 1.146.218 1.456-.041.242-.204.255-.206.255-.044zm-4.741 1.791c.24.064.841.327 1.335.584 1.064.552 1.52.635 2.033.368.179-.093.34-.154.358-.137.084.084-.265.566-.541.748-.512.337-1.008.47-1.927.517-1.454.074-2.909-.328-3.517-.974l-.249-.263.397.057c.218.031.815.165 1.325.298 1.002.259 2.065.406 1.923.264s-1.115-.42-2.236-.639c-1.661-.324-1.526-.271-1.194-.474.383-.236 1.183-.479 1.553-.472.167.003.5.058.74.123zm-42.793.388c.208.167.236.372.078.566-.2.247-.564.164-.642-.147-.043-.17-.012-.254.132-.371.222-.179.263-.184.432-.048zm.265 2.666c.292.291.006.77-.399.669-.237-.06-.369-.408-.236-.621.114-.182.473-.209.635-.048zm.652 2.457c.25.193.218.612-.058.737-.443.201-.833-.378-.473-.703.18-.163.348-.174.531-.034zm1.061 2.013c-1.623 1.909-4.166 2.923-6.692 2.667-2.444-.247-3.849-.99-3.849-2.037 0-.449.307-.702.903-.743.45-.031.544-.002 1.487.463 2.222 1.096 3.807 1.317 5.645.788a7.749 7.749 0 0 0 2.212-1.044c.455-.304.48-.312.294-.094zm.773 1.116c.064.497.411 1.291.727 1.667.107.127.455.406.774.621.499.336.583.428.606.663.034.356-.104.511-.456.511-.412 0-1.098-.669-1.484-1.446-.322-.651-.445-1.523-.303-2.149l.075-.331.061.464zm-.392.239c-.183.713-.245 1.676-.147 2.311.195 1.275.513 1.919 1.523 3.089.579.672.726.977.58 1.203-.118.181-.53.148-.885-.071-.372-.229-.999-1.17-1.307-1.961-.493-1.266-.502-2.679-.028-4.068.205-.599.37-.914.264-.503zm12.728 1.063c.7.46.791 1.401.198 2.047-.287.312-.815.454-1.099.296-.113-.063-.056-.074.225-.042.335.038.408.013.678-.222.776-.68.496-1.855-.468-1.963-.313-.035-.496.016-1.2.338-1.867.854-3.906 1.192-5.345.885-.645-.137-.544-.207.123-.085 1.148.21 2.689-.089 4.655-.904 1.34-.556 1.808-.63 2.233-.35z"/></g></g><path d="M594.99 248v-37a4 4 0 0 0-4-4h-37a4 4 0 0 0-4 4v37a4 4 0 0 0 4 4h37a4 4 0 0 0 4-4Z" fill="#5049e1"/><path d="M579.281 225.062v4.327h-13.344v-4.327h13.344ZM567.76 215v25h-5.77v-25h5.77Zm15.503 0v25h-5.752v-25h5.752Zm-21.273 27h21.273v2H561.99v-2Z" fill="#fff"/><path d="M734.981 348.199c.328-1.955-3.685-1.448-6.142-.815-11.055 2.853-15.15 2.037-18.426 1.63-10.809-1.63-15.696 5.568-16.787 9.371-.41 1.765-.819 5.541.818 6.519 3.686 1.629 8.599-2.038 10.237-4.482 1.31-1.956 4.095-2.173 5.323-2.037 3.822-.136 12.12-.652 14.741-1.63 3.275-1.222 9.827-6.111 10.236-8.556Zm-45.56 20.563c-28.641 1.366-34.285-3.448-32.509-6.83 3.704-4.839 13.582-12.348 21.154-5.177 4.886 4.628 10.222 8.112 13.103 8.966 2.552.757-.376 2.899-1.748 3.041Z" fill="#3f3c55"/><path d="M705.091 227.6c-.983 7.17-4.505 9.506-6.142 9.778l4.504 12.223c4.504-.408 6.961-3.26 9.008-6.519s-3.685-8.149-4.914-11.408c-.982-2.608-2.047-3.803-2.456-4.074z" fill="#f9a66e"/><path d="M708.776 229.229h-4.095c.273-3.939-2.388-12.682-5.732-21.187-3.686-9.37-2.73-27.026-.819-35.854.136 3.396 1.474 14.016 5.732 29.336s5.05 24.853 4.914 27.705z"/><path fill-rule="evenodd" d="M671.515 132.014c3.942-2.54 6.551-6.956 6.551-11.978 0-7.875-6.416-14.26-14.331-14.26s-14.331 6.385-14.331 14.26c0 5.689 3.347 10.6 8.189 12.888v.15l-2.866 2.852 15.15 23.223L676.428 140c-1.638-.815-4.913-2.445-4.913-4.074v-3.912z" fill="#f9a66e"/><path d="M657.593 136.741c-3.276-2.608-4.641-.543-4.914.815l7.78 65.189c0 .652 1.365 8.42 2.048 12.223l11.874 2.037 17.607-2.037-2.048-21.594-9.417-42.78c.955-2.717 1.965-8.556-1.638-10.186-4.504-2.037-6.551 1.222-6.551 4.074 0 4.563-1.911 8.964-2.867 10.593 0-3.666-1.228-6.518-1.228-8.556 0-1.629-1.092-2.58-1.638-2.852l-9.008-6.926z" fill="#5049e1"/><path d="M649.813 138.372c1.966-2.282 3.276-2.309 3.685-2.037 1.638 1.63 9.009 16.705 17.198 39.928 6.551 18.579 0 31.916-4.095 36.262 13.758 3.259 19.654-.544 20.883-2.852.982-5.215-3.685-27.162-6.142-37.484-1.365-5.025-4.341-17.438-5.323-26.891 0-1.629.082-4.155 2.047-4.481 1.965-.652 7.37 2.173 9.827 3.667 8.189 4.074 10.646 24.038 11.056 33.816s4.094 22.817 7.37 33.002c2.62 8.149 2.73 15.89 2.457 18.742h-4.504c1.31 4.238-3.003 7.198-5.323 8.149l6.551 16.705c2.866 6.926 11.055 34.631 9.008 42.372s-4.913 30.965-5.323 37.077c-.327 4.889 1.228 7.469 2.047 8.148l4.095 4.89-22.111 11.815c-2.457-3.259-2.866-24.853-1.638-45.225.983-16.297.41-26.619 0-29.742-1.31-11.408-11.192-21.323-15.969-24.854-2.456 2.445-2.047 49.707-2.456 55.818s-1.229 14.668.409 19.15-.819 6.111.819 8.148c2.866 4.89-.41 6.519 1.228 9.779 1.311 2.607 1.638 4.346 1.638 4.889-13.758.978-19.108 5.84-20.063 8.149-4.914-5.704-2.048-40.744-4.914-50.115s-2.457-45.632-2.457-53.373c0-6.193-2.457-11.816-3.685-13.853-11.465 3.26-14.604-20.371-14.741-32.594-2.729-3.396-8.434-10.594-9.417-12.223-1.228-2.037-2.047-4.482 0-8.964s4.913-22.816 4.913-27.705-.819-13.445 3.686-13.853 16.787-11.408 19.244-14.26z" fill="#232323"/><path d="M655.546 217.821l-6.961 8.556 7.37 3.26c2.457.814 5.569.896 8.189-.408s2.73-4.889 2.457-6.519c1.229 0 4.674.566 6.142-.407 2.457-1.63-1.638-2.852-6.961-4.482-6.879-1.956-9.69-.815-10.236 0z" fill="#f9a66e"/><path d="M676.838 110.258l-9.008-11c-1.229-1.223-1.229 0-2.457 0s-.819-.815-2.866-1.223-2.048 2.852-3.686 2.038c-3.685-1.63-3.685 2.444-5.732 1.629s-3.685 1.223-5.323 5.297-.819 16.297.819 18.742 3.685 1.63 3.276 0 1.637-4.075 3.275-5.297 2.048-2.852 2.048-4.889 1.228-4.074 4.504-5.297 6.142 1.223 11.874 2.852c4.586 1.304 4.095-1.358 3.276-2.852z"/></g><defs><clipPath id="A"><path fill="#fff" d="M0 0h735v369H0z"/></clipPath></defs></svg>