<svg xmlns="http://www.w3.org/2000/svg" viewBox="0 0 150 45"><path d="M70.367 20.318v4.007h-11.86v-4.007h11.86ZM60.127 11v23.153H55V11h5.127Zm13.779 0v23.153h-5.112V11h5.112ZM85.482 34.47c-1.353 0-2.564-.217-3.633-.651-1.07-.435-1.977-1.034-2.722-1.797a8.046 8.046 0 0 1-1.682-2.672 8.903 8.903 0 0 1-.582-3.228v-.604c0-1.283.178-2.465.534-3.546.357-1.081.876-2.02 1.557-2.815a6.928 6.928 0 0 1 2.549-1.86c1.006-.445 2.154-.668 3.444-.668 1.206 0 2.28.201 3.224.604a6.39 6.39 0 0 1 2.391 1.702c.65.731 1.143 1.617 1.479 2.655.346 1.029.519 2.184.519 3.467v2.035H78.844v-3.196h8.903v-.381c0-.605-.11-1.135-.33-1.59a2.286 2.286 0 0 0-.944-1.05c-.41-.255-.928-.382-1.557-.382-.598 0-1.096.127-1.495.382a2.743 2.743 0 0 0-.96 1.081c-.23.456-.397.991-.502 1.606a11.456 11.456 0 0 0-.158 1.956v.604c0 .668.09 1.278.268 1.829.178.551.44 1.023.786 1.415.346.393.766.7 1.258.922.493.223 1.054.334 1.683.334.776 0 1.515-.148 2.218-.445.703-.307 1.31-.784 1.825-1.43l2.296 2.655c-.346.508-.834 1.001-1.463 1.478-.618.467-1.363.848-2.233 1.145-.87.297-1.856.446-2.957.446ZM104.01 29.366c0-.318-.1-.599-.299-.843-.189-.243-.535-.466-1.038-.667-.493-.202-1.19-.403-2.092-.605-.85-.18-1.64-.413-2.375-.7a8.323 8.323 0 0 1-1.919-1.065 4.647 4.647 0 0 1-1.274-1.495c-.304-.582-.456-1.245-.456-1.987 0-.721.152-1.405.456-2.052a5.262 5.262 0 0 1 1.353-1.717c.598-.498 1.321-.89 2.17-1.177.86-.286 1.835-.429 2.926-.429 1.499 0 2.794.239 3.885.716 1.09.466 1.929 1.123 2.516 1.972.588.837.881 1.796.881 2.878h-4.907c0-.446-.084-.832-.252-1.161a1.741 1.741 0 0 0-.77-.763c-.346-.191-.803-.287-1.369-.287-.44 0-.828.08-1.164.239a1.882 1.882 0 0 0-.77.62 1.613 1.613 0 0 0-.268.922c0 .244.053.467.157.668.116.191.289.371.52.54.241.16.55.303.928.43.387.127.859.25 1.415.366a16.4 16.4 0 0 1 3.24.938c.986.403 1.772.96 2.359 1.67.598.71.897 1.648.897 2.814a4.32 4.32 0 0 1-.519 2.1c-.336.635-.823 1.192-1.463 1.669-.639.477-1.405.848-2.296 1.113-.891.265-1.898.398-3.02.398-1.604 0-2.962-.292-4.074-.875-1.111-.583-1.95-1.314-2.516-2.194-.556-.89-.834-1.803-.834-2.736h4.609c.02.573.162 1.04.424 1.4.273.36.624.625 1.054.795.43.159.912.238 1.447.238s.98-.074 1.337-.222c.356-.149.629-.35.818-.604.189-.265.283-.568.283-.907ZM120.147 16.947v3.483H110.05v-3.483h10.097Zm-7.785-4.261h4.923v16.076c0 .477.057.843.173 1.097.115.255.304.435.566.54.262.096.598.144 1.007.144.293 0 .545-.01.755-.032a7.89 7.89 0 0 0 .582-.08v3.594c-.42.138-.866.244-1.337.318a8.734 8.734 0 0 1-1.542.128c-1.059 0-1.976-.175-2.752-.525a3.718 3.718 0 0 1-1.762-1.654c-.409-.763-.613-1.754-.613-2.974V12.686ZM130.528 34.47c-1.353 0-2.564-.217-3.633-.651-1.07-.435-1.977-1.034-2.721-1.797a8.046 8.046 0 0 1-1.683-2.672 8.9 8.9 0 0 1-.582-3.228v-.604c0-1.283.178-2.465.535-3.546.356-1.081.875-2.02 1.557-2.815a6.925 6.925 0 0 1 2.548-1.86c1.006-.445 2.155-.668 3.444-.668 1.206 0 2.281.201 3.225.604.943.393 1.74.96 2.39 1.702.651.731 1.143 1.617 1.479 2.655.346 1.029.519 2.184.519 3.467v2.035h-13.715v-3.196h8.902v-.381c0-.605-.11-1.135-.33-1.59a2.29 2.29 0 0 0-.944-1.05c-.409-.255-.928-.382-1.557-.382-.598 0-1.096.127-1.494.382a2.738 2.738 0 0 0-.96 1.081c-.23.456-.398.991-.503 1.606a11.436 11.436 0 0 0-.157 1.956v.604c0 .668.089 1.278.267 1.829.178.551.44 1.023.786 1.415.347.393.766.7 1.259.922.493.223 1.054.334 1.683.334.776 0 1.515-.148 2.217-.445.703-.307 1.311-.784 1.825-1.43l2.296 2.655c-.346.508-.833 1.001-1.462 1.478-.619.467-1.364.848-2.234 1.145-.87.297-1.856.446-2.957.446ZM144.92 20.954v13.199h-4.908V16.947h4.609l.299 4.007ZM150 16.82l-.079 4.627a9.735 9.735 0 0 0-.818-.08 9.336 9.336 0 0 0-.865-.047c-.629 0-1.174.08-1.635.239a2.883 2.883 0 0 0-1.133.667 2.797 2.797 0 0 0-.66 1.114c-.147.434-.221.938-.221 1.51l-.928-.461c0-1.134.111-2.173.331-3.117.22-.943.54-1.76.959-2.448.42-.7.933-1.24 1.542-1.622.608-.382 1.3-.573 2.076-.573.251 0 .508.016.77.048.263.032.483.08.661.143Z" fill="#232323"/><rect x="45" width="45" height="45" rx="4" transform="rotate(90 45 0)" fill="#5049E1"/><path d="M29.29 18.062v4.327H15.948v-4.327H29.29ZM17.77 8v25H12V8h5.77Zm15.503 0v25H27.52V8h5.752ZM12 35h21.273v2H12z" fill="#fff"/></svg>